<svg xmlns="http://www.w3.org/2000/svg" viewBox="0 0 200 200" width="200" height="200">
  <defs>
    <radialGradient id="bg41" cx="50%" cy="40%" r="60%">
      <stop offset="0%" stop-color="#28283A"/>
      <stop offset="100%" stop-color="#1A1A20"/>
    </radialGradient>
    <radialGradient id="ring41" cx="40%" cy="35%" r="65%">
      <stop offset="0%" stop-color="#C8D0E0"/>
      <stop offset="100%" stop-color="#A0A8B8"/>
    </radialGradient>
  </defs>

  <!-- Fondo -->
  <rect width="200" height="200" rx="18" fill="url(#bg41)"/>

  <!-- Anillo exterior decorativo -->
  <circle cx="100" cy="86" r="58" fill="none" stroke="#A0A8B8" stroke-width="2.5" opacity="0.4"/>
  <circle cx="100" cy="86" r="54" fill="none" stroke="#C8D0E0" stroke-width="1" opacity="0.25"/>

  <!-- Círculo principal -->
  <circle cx="100" cy="86" r="48" fill="url(#ring41)" opacity="0.18"/>
  <circle cx="100" cy="86" r="44" fill="#28283A" stroke="#A0A8B8" stroke-width="2"/>

  <!-- Destellos en el anillo -->
  <circle cx="100" cy="42" r="3" fill="#E8EDF5" opacity="0.9"/>
  <circle cx="144" cy="86" r="2.5" fill="#C8D0E0" opacity="0.7"/>
  <circle cx="56"  cy="86" r="2.5" fill="#C8D0E0" opacity="0.7"/>
  <circle cx="100" cy="130" r="2" fill="#E8EDF5" opacity="0.5"/>

  <!-- Ícono central -->
  <g transform="translate(100,86)" fill="#C8D0E0" stroke="#A0A8B8" stroke-width="0.8">
    <path d="M-10,-16 L10,-16 L10,-4 Q10,8 0,12 Q-10,8 -10,-4 Z" fill-opacity="0.3"/><path d="M-10,-16 L10,-16 L10,-4 Q10,8 0,12 Q-10,8 -10,-4 Z" fill="none" stroke-width="1.8"/><path d="M-10,-10 L-16,-10 Q-18,-10 -18,-4 Q-18,2 -10,2" fill="none" stroke-width="1.5"/><path d="M10,-10 L16,-10 Q18,-10 18,-4 Q18,2 10,2" fill="none" stroke-width="1.5"/><rect x="-4" y="12" width="8" height="4" rx="1"/><rect x="-8" y="16" width="16" height="2.5" rx="1"/>
  </g>
  

  <!-- Línea decorativa -->
  <line x1="30" y1="150" x2="170" y2="150" stroke="#A0A8B8" stroke-width="0.8" opacity="0.5"/>
  <circle cx="30"  y1="150" cy="150" r="2" fill="#A0A8B8" opacity="0.6"/>
  <circle cx="170" cy="150" r="2" fill="#A0A8B8" opacity="0.6"/>

  <!-- Título -->
  <text x="100" y="165" text-anchor="middle" font-family="Arial,sans-serif"
        font-size="11" font-weight="bold" fill="#F0F4FF" letter-spacing="0.3">Finalista</text>

  <!-- Subtítulo -->
  <text x="100" y="180" text-anchor="middle" font-family="Arial,sans-serif"
        font-size="8.5" fill="#A0A8C0" letter-spacing="0.2">Llega a la gran final</text>

  <!-- Número de logro -->
  <text x="16" y="17" font-family="Arial,sans-serif" font-size="8" fill="#A0A8B8" opacity="0.7">#041</text>

  <!-- Tier badge -->
  <rect x="142" y="6" width="52" height="14" rx="7" fill="#A0A8B8" opacity="0.25"/>
  <text x="168" y="16" text-anchor="middle" font-family="Arial,sans-serif"
        font-size="8" font-weight="bold" fill="#C8D0E0" letter-spacing="0.5">PLATA</text>
</svg>