<svg xmlns="http://www.w3.org/2000/svg" viewBox="0 0 200 200" width="200" height="200">
  <defs>
    <radialGradient id="bg57" cx="50%" cy="40%" r="60%">
      <stop offset="0%" stop-color="#28283A"/>
      <stop offset="100%" stop-color="#1A1A20"/>
    </radialGradient>
    <radialGradient id="ring57" cx="40%" cy="35%" r="65%">
      <stop offset="0%" stop-color="#C8D0E0"/>
      <stop offset="100%" stop-color="#A0A8B8"/>
    </radialGradient>
  </defs>

  <!-- Fondo -->
  <rect width="200" height="200" rx="18" fill="url(#bg57)"/>

  <!-- Anillo exterior decorativo -->
  <circle cx="100" cy="86" r="58" fill="none" stroke="#A0A8B8" stroke-width="2.5" opacity="0.4"/>
  <circle cx="100" cy="86" r="54" fill="none" stroke="#C8D0E0" stroke-width="1" opacity="0.25"/>

  <!-- Círculo principal -->
  <circle cx="100" cy="86" r="48" fill="url(#ring57)" opacity="0.18"/>
  <circle cx="100" cy="86" r="44" fill="#28283A" stroke="#A0A8B8" stroke-width="2"/>

  <!-- Destellos en el anillo -->
  <circle cx="100" cy="42" r="3" fill="#E8EDF5" opacity="0.9"/>
  <circle cx="144" cy="86" r="2.5" fill="#C8D0E0" opacity="0.7"/>
  <circle cx="56"  cy="86" r="2.5" fill="#C8D0E0" opacity="0.7"/>
  <circle cx="100" cy="130" r="2" fill="#E8EDF5" opacity="0.5"/>

  <!-- Ícono central -->
  <g transform="translate(100,86)" fill="#C8D0E0" stroke="#A0A8B8" stroke-width="0.8">
    <path d="M-12,-12 L-12,4 Q-12,16 0,16 Q12,16 12,4 L12,-12 L7,-12 L7,4 Q7,11 0,11 Q-7,11 -7,4 L-7,-12 Z" fill-opacity="0.3" stroke-width="1.5"/><rect x="-14" y="-16" width="6" height="6" rx="1"/><rect x="8" y="-16" width="6" height="6" rx="1"/>
  </g>
  

  <!-- Línea decorativa -->
  <line x1="30" y1="150" x2="170" y2="150" stroke="#A0A8B8" stroke-width="0.8" opacity="0.5"/>
  <circle cx="30"  y1="150" cy="150" r="2" fill="#A0A8B8" opacity="0.6"/>
  <circle cx="170" cy="150" r="2" fill="#A0A8B8" opacity="0.6"/>

  <!-- Título -->
  <text x="100" y="165" text-anchor="middle" font-family="Arial,sans-serif"
        font-size="11" font-weight="bold" fill="#F0F4FF" letter-spacing="0.3">Imán de victorias</text>

  <!-- Subtítulo -->
  <text x="100" y="180" text-anchor="middle" font-family="Arial,sans-serif"
        font-size="8.5" fill="#A0A8C0" letter-spacing="0.2">10 victorias seguidas</text>

  <!-- Número de logro -->
  <text x="16" y="17" font-family="Arial,sans-serif" font-size="8" fill="#A0A8B8" opacity="0.7">#057</text>

  <!-- Tier badge -->
  <rect x="142" y="6" width="52" height="14" rx="7" fill="#A0A8B8" opacity="0.25"/>
  <text x="168" y="16" text-anchor="middle" font-family="Arial,sans-serif"
        font-size="8" font-weight="bold" fill="#C8D0E0" letter-spacing="0.5">PLATA</text>
</svg>