<svg xmlns="http://www.w3.org/2000/svg" viewBox="0 0 200 200" width="200" height="200">
  <defs>
    <radialGradient id="bg85" cx="50%" cy="40%" r="60%">
      <stop offset="0%" stop-color="#2A2000"/>
      <stop offset="100%" stop-color="#1A1400"/>
    </radialGradient>
    <radialGradient id="ring85" cx="40%" cy="35%" r="65%">
      <stop offset="0%" stop-color="#FFD700"/>
      <stop offset="100%" stop-color="#D4AF37"/>
    </radialGradient>
  </defs>

  <!-- Fondo -->
  <rect width="200" height="200" rx="18" fill="url(#bg85)"/>

  <!-- Anillo exterior decorativo -->
  <circle cx="100" cy="86" r="58" fill="none" stroke="#D4AF37" stroke-width="2.5" opacity="0.4"/>
  <circle cx="100" cy="86" r="54" fill="none" stroke="#FFD700" stroke-width="1" opacity="0.25"/>

  <!-- Círculo principal -->
  <circle cx="100" cy="86" r="48" fill="url(#ring85)" opacity="0.18"/>
  <circle cx="100" cy="86" r="44" fill="#2A2000" stroke="#D4AF37" stroke-width="2"/>

  <!-- Destellos en el anillo -->
  <circle cx="100" cy="42" r="3" fill="#FFF0A0" opacity="0.9"/>
  <circle cx="144" cy="86" r="2.5" fill="#FFD700" opacity="0.7"/>
  <circle cx="56"  cy="86" r="2.5" fill="#FFD700" opacity="0.7"/>
  <circle cx="100" cy="130" r="2" fill="#FFF0A0" opacity="0.5"/>

  <!-- Ícono central -->
  <g transform="translate(100,86)" fill="#FFD700" stroke="#D4AF37" stroke-width="0.8">
    <polygon points="0,-18 8,-6 8,6 0,18 -8,6 -8,-6" fill-opacity="0.25" stroke-width="1.8"/><polygon points="0,-12 5,-4 5,4 0,12 -5,4 -5,-4" fill-opacity="0.2" stroke-width="1.2"/><line x1="0" y1="-18" x2="0" y2="18" stroke-width="0.8" opacity="0.5"/>
  </g>
  

  <!-- Línea decorativa -->
  <line x1="30" y1="150" x2="170" y2="150" stroke="#D4AF37" stroke-width="0.8" opacity="0.5"/>
  <circle cx="30"  y1="150" cy="150" r="2" fill="#D4AF37" opacity="0.6"/>
  <circle cx="170" cy="150" r="2" fill="#D4AF37" opacity="0.6"/>

  <!-- Título -->
  <text x="100" y="165" text-anchor="middle" font-family="Arial,sans-serif"
        font-size="11" font-weight="bold" fill="#FFF8DC" letter-spacing="0.3">Diamante</text>

  <!-- Subtítulo -->
  <text x="100" y="180" text-anchor="middle" font-family="Arial,sans-serif"
        font-size="8.5" fill="#C8A800" letter-spacing="0.2">WR +75% en temporada</text>

  <!-- Número de logro -->
  <text x="16" y="17" font-family="Arial,sans-serif" font-size="8" fill="#D4AF37" opacity="0.7">#085</text>

  <!-- Tier badge -->
  <rect x="142" y="6" width="52" height="14" rx="7" fill="#D4AF37" opacity="0.25"/>
  <text x="168" y="16" text-anchor="middle" font-family="Arial,sans-serif"
        font-size="8" font-weight="bold" fill="#FFD700" letter-spacing="0.5">ORO</text>
</svg>